<mxfile host="app.diagrams.net" modified="2024-05-28T07:42:41.588Z" agent="Mozilla/5.0 (Windows NT 10.0; Win64; x64) AppleWebKit/537.36 (KHTML, like Gecko) Chrome/125.0.0.0 Safari/537.36" version="24.4.9" etag="uARjS32a1X3oicZkwGYv" type="github">
  <diagram name="Page-1" id="tMNWXCPDWmfV4vQUkxu4">
    <mxGraphModel>
      <root>
        <mxCell id="0" />
        <mxCell id="1" parent="0" />
      </root>
    </mxGraphModel>
  </diagram>
</mxfile>
